<?xml version="1.0" encoding="UTF-8"?>
<svg width="19px" height="19px" viewBox="0 0 19 19" version="1.1" xmlns="http://www.w3.org/2000/svg" xmlns:xlink="http://www.w3.org/1999/xlink">
    <!-- Generator: Sketch 62 (91390) - https://sketch.com -->
    <title>icon / black / loading</title>
    <desc>Created with Sketch.</desc>
    <g id="icon-/-black-/-loading" stroke="none" stroke-width="1" fill="none" fill-rule="evenodd">
        <path d="M9.5,1 C14.1944204,1 18,4.80557963 18,9.5 C18,14.1090673 14.331547,17.8613215 9.75516027,17.9962434 L9.5,18 L9.5,16 C13.0898509,16 16,13.0898509 16,9.5 C16,5.91014913 13.0898509,3 9.5,3 C7.49589123,3 5.64371485,3.9114894 4.41680894,5.44847578 C3.56526346,6.51523551 3.06907153,7.81844191 3.00669726,9.20228479 L3,9.5 L1,9.5 C1,7.54828967 1.66099026,5.69494946 2.85374112,4.20075026 C4.45620378,2.19329128 6.88101082,1 9.5,1 Z" id="Oval" fill="#222222" fill-rule="nonzero" transform="translate(9.500000, 9.500000) rotate(-270.000000) translate(-9.500000, -9.500000) "></path>
    </g>
</svg>